<svg id="Capa_1" enable-background="new 0 0 512 512" height="512" viewBox="0 0 512 512" width="512" xmlns="http://www.w3.org/2000/svg"><g><path fill="#345023" d="m391.62 90.25h30v91.55h-30z"/><path fill="#345023" d="m30.125 90.25h30v331.5h-30z"/><path fill="#345023" d="m90.375 90.25h30v331.5h-30z"/><path fill="#345023" d="m150.625 90.25h30v331.5h-30z"/><path fill="#345023" d="m210.875 90.25h30v331.5h-30z"/><path fill="#345023" d="m271.125 90.25h30v331.5h-30z"/><path fill="#345023" d="m331.375 330.2h30v91.55h-30z"/><path fill="#345023" d="m331.375 90.25h30v91.55h-30z"/><path fill="#345023" d="m391.62 330.2h30v91.55h-30z"/><path fill="#345023" d="m451.875 90.25h30v91.55h-30z"/><path fill="#345023" d="m451.875 330.2h30v91.55h-30z"/><path fill="#345023" d="m0 466.75v30.25c0 8.284 6.716 15 15 15h482c8.284 0 15-6.716 15-15v-30.25c0-8.284-6.716-15-15-15h-482c-8.284 0-15 6.716-15 15z"/><path fill="#345023" d="m512 45.25v-30.25c0-8.284-6.716-15-15-15h-482c-8.284 0-15 6.716-15 15v30.25c0 8.284 6.716 15 15 15h482c8.284 0 15-6.716 15-15z"/><path fill="#345023" d="m361.375 211.8v88.4h90.505v-88.4zm61.305 57.2c0 8.284-6.716 15-15 15s-15-6.716-15-15v-26c0-8.284 6.716-15 15-15s15 6.716 15 15z"/></g></svg>